<?xml version="1.0" encoding="UTF-8"?>
<svg version="1.1" width="100" height="100" 
    xmlns="http://www.w3.org/2000/svg" xmlns:xlink= "http://www.w3.org/1999/xlink">
    <style>
        @keyframes rotate {
            100% {
                transform: rotate(360deg);
            }
        }
    </style>
    <path stroke="black" stroke-width="1.5" fill="grey" d="M 55,45 L 55,30 L 50,30 L 65,15 L 65,30 L 65,18 L 68,18 L 68,27 L 65,27 L 65,30 L 55,30 L 63,30 L 63,45 "/>
    <path stroke="black" stroke-width="1.5" fill="grey" d="M 15,75 A 35,35 0,0,1 85,75 z"/>

    <use href="#cog-wheel" transform="translate(20,70)"/>
    <use href="#cog-wheel" transform="translate(80,70)"/>
    
    <defs>
    <g id="cog-wheel"  style="animation: rotate 3s linear infinite;" >
        <g transform="scale(0.075,0.075)">
        <g transform="translate(-255,-255)">
        <path fill="#202020" stroke="black" stroke-width="20" d="M478.683,201.684h-16.401c-5.602,0-10.546-3.613-12.3-8.989c-3.266-10.01-7.355-19.853-12.152-29.255
            c-2.517-4.931-1.541-10.911,2.428-14.881l11.611-11.61c12.991-12.992,12.991-34.129,0-47.119l-29.698-29.698
            c-12.991-12.99-34.128-12.991-47.119,0l-11.61,11.611c-3.967,3.969-9.947,4.945-14.881,2.428
            c-9.403-4.798-19.246-8.886-29.254-12.151c-5.376-1.755-8.989-6.698-8.989-12.3V33.318c0-18.372-14.946-33.318-33.318-33.318
            h-41.999c-18.372,0-33.318,14.946-33.318,33.318v16.399c0,5.602-3.613,10.546-8.989,12.3
            c-10.01,3.266-19.853,7.355-29.255,12.152c-4.931,2.517-10.911,1.541-14.881-2.428l-11.61-11.611
            c-12.992-12.99-34.129-12.989-47.119,0L60.131,89.829c-12.991,12.992-12.991,34.129,0,47.119l11.611,11.61
            c3.969,3.97,4.946,9.949,2.429,14.881c-4.798,9.403-8.887,19.246-12.152,29.255c-1.755,5.376-6.698,8.989-12.3,8.989H33.318
            C14.946,201.683,0,216.629,0,235V277c0,18.372,14.946,33.318,33.318,33.318h16.4c5.602,0,10.546,3.613,12.3,8.989
            c3.267,10.01,7.355,19.854,12.152,29.255c2.517,4.931,1.541,10.911-2.428,14.881l-11.611,11.61
            c-12.991,12.992-12.991,34.129,0,47.119l29.698,29.698c12.992,12.99,34.129,12.99,47.119,0l11.61-11.611
            c3.969-3.969,9.949-4.945,14.881-2.428c9.403,4.798,19.246,8.885,29.254,12.151c5.376,1.755,8.989,6.698,8.989,12.3v16.401
            C201.682,497.055,216.628,512,235,512h41.999c18.372,0,33.318-14.946,33.319-33.317v-16.401c0-5.602,3.613-10.546,8.989-12.3
            c10.01-3.266,19.853-7.355,29.255-12.152c4.932-2.517,10.912-1.54,14.881,2.428l11.61,11.611
            c12.992,12.991,34.129,12.99,47.119,0l29.698-29.698c12.991-12.992,12.991-34.129,0-47.119l-11.611-11.61
            c-3.97-3.968-4.946-9.949-2.428-14.881c4.798-9.403,8.886-19.246,12.151-29.254c1.755-5.376,6.698-8.989,12.3-8.989h16.401
            c18.372,0,33.318-14.946,33.318-33.318v-41.999C512.001,216.63,497.055,201.684,478.683,201.68z"/>
        <circle cx="255" cy="255" r="120" fill="grey" stroke="black" stroke-width="20"/>
        <circle cx="255" cy="255" r="30" fill="grey" stroke="black" stroke-width="40"/>
        <path d="M333.344,245.801c-5.633,0-10.199,4.566-10.199,10.199c0,2.149-0.102,4.319-0.305,6.45
            c-0.533,5.608,3.58,10.586,9.187,11.119c0.328,0.031,0.654,0.046,0.977,0.046c5.197,0,9.639-3.954,10.142-9.233
            c0.263-2.77,0.397-5.59,0.397-8.382C343.543,250.367,338.977,245.801,333.344,245.801z"/>

        <path d="M327.911,286.3c-4.857-2.851-11.107-1.226-13.959,3.633c-12.024,20.485-34.231,33.211-57.952,33.211
			c-5.633,0-10.199,4.566-10.199,10.199c0,5.633,4.566,10.199,10.199,10.199c30.926,0,59.872-16.585,75.544-43.283
			C334.395,295.401,332.768,289.152,327.911,286.3z"/>
    </g>
    </g>
    </g>
    </defs>
</svg>